<svg xmlns="http://www.w3.org/2000/svg" xml:space="preserve" id="katman_1" version="1.1" viewBox="0 0 512 512"><style>.st2{fill:#fff}</style><circle cx="256" cy="256" r="250" style="fill:#34b297"/><path d="M497.7 320.2q-.3-.6-.9-1.2c-40.9-40.8-81.8-81.7-122.7-122.6-23.6-23.6-47-47.3-70.8-70.7-16.9-16.6-37.4-22.7-60.6-17.7-31.6 6.8-51.9 35-51.6 64.3.2 17.9 0 35.8 0 53.8v3.3h-21.4c-4.4 0-8.5 1.2-12.2 3.7-6.5 4.5-9.7 10.8-9.7 18.8v132.2c0 6.4 2 11.9 6.6 16.4 34.9 34.8 69.7 69.7 104.5 104.5.4.4.8.7 1.3 1 114-1.9 209.5-80.1 237.5-185.8" style="fill:#15a085"/><path d="M256 268.1c-16.4 0-29.8 13.4-29.8 29.8 0 8.1 3.4 16 9.3 21.6v26.9c0 11.3 9.2 20.5 20.5 20.5s20.5-9.2 20.5-20.5v-26.9c5.9-5.6 9.3-13.5 9.3-21.6 0-16.4-13.4-29.8-29.8-29.8m10.5 41c-2.8 2.7-4.5 6.4-4.5 10.3v27c0 3.3-2.7 6.1-6.1 6.1-3.3 0-6.1-2.7-6.1-6.1v-27c0-3.8-1.6-7.6-4.5-10.3-3.1-2.9-4.8-6.9-4.8-11.2 0-8.5 6.9-15.4 15.4-15.4s15.4 6.9 15.4 15.4c.1 4.3-1.7 8.2-4.8 11.2" class="st2"/><path d="M343.3 229h-21.6v-57.3c0-36.2-29.5-65.7-65.7-65.7s-65.7 29.5-65.7 65.7V229h-21.6c-11.9 0-21.6 9.7-21.6 21.6v133.8c0 11.9 9.7 21.6 21.6 21.6h174.6c11.9 0 21.6-9.7 21.6-21.6V250.6c0-11.9-9.7-21.6-21.6-21.6m-138.5-57.3c0-28.3 23-51.2 51.2-51.2 28.3 0 51.2 23 51.2 51.2V229H204.8zm145.7 212.7c0 4-3.2 7.2-7.2 7.2H168.7c-4 0-7.2-3.2-7.2-7.2V250.6c0-4 3.2-7.2 7.2-7.2h174.6c4 0 7.2 3.2 7.2 7.2z" class="st2"/></svg>